<svg width="64" height="64" viewBox="0 0 100 100" xmlns="http://www.w3.org/2000/svg">
  <rect x="6" y="6" width="88" height="88" rx="22" fill="#f6a602"/>
  <g fill="#1a1917">
    <path d="M33 24.8 41.7 29.8 41.7 39.8 33 44.8 24.3 39.8 24.3 29.8Z"/>
    <path d="M67 24.8 75.7 29.8 75.7 39.8 67 44.8 58.3 39.8 58.3 29.8Z"/>
    <path d="M50 42.4 58.7 47.4 58.7 57.4 50 62.4 41.3 57.4 41.3 47.4Z"/>
    <path d="M33 60 41.7 65 41.7 75 33 80 24.3 75 24.3 65Z"/>
    <path d="M67 60 75.7 65 75.7 75 67 80 58.3 75 58.3 65Z"/>
  </g>
</svg>
